M48
;GenerationSoftware,Autodesk,EAGLE,9.6.2*%
;CreationDate,2021-10-29T17:08:00Z*%
FMAT,2
ICI,OFF
METRIC,TZ,000.000
T5C0.305
T4C0.400
T3C0.650
T2C1.016
T1C3.302
%
G90
M71
T1
X177800Y46228
X139700Y46228
X86360Y84328
X48260Y84328
X40640Y40640
X2540Y40640
X40640Y2540
X2540Y2540
X86360Y46228
X48260Y46228
X86360Y40640
X48260Y40640
X86360Y2540
X48260Y2540
X177800Y84328
X139700Y84328
X132080Y40640
X93980Y40640
X132080Y2540
X93980Y2540
X132080Y84328
X93980Y84328
X177800Y40640
X139700Y40640
X177800Y2540
X139700Y2540
X132080Y46228
X93980Y46228
X40640Y84328
X2540Y84328
X40640Y46228
X2540Y46228
T2
X173990Y83058
X62230Y41910
X92710Y66548
X128270Y85598
X128270Y83058
X146050Y61468
X146050Y64008
X151130Y44958
X153670Y44958
X156210Y44958
X158750Y44958
X171450Y85598
X168910Y85598
X166370Y85598
X163830Y85598
X1270Y27940
X161290Y85598
X158750Y85598
X156210Y85598
X153670Y85598
X151130Y85598
X173990Y44958
X8890Y17780
X8890Y20320
X13970Y1270
X16510Y1270
X19050Y1270
X21590Y1270
X34290Y41910
X31750Y41910
X29210Y41910
X26670Y41910
X24130Y41910
X21590Y41910
X19050Y41910
X16510Y41910
X13970Y41910
X36830Y1270
X34290Y1270
X31750Y1270
X29210Y1270
X26670Y1270
X24130Y1270
X1270Y35560
X1270Y33020
X1270Y30480
X171450Y44958
X1270Y25400
X1270Y22860
X36830Y41910
X36830Y39370
X168910Y44958
X166370Y44958
X163830Y44958
X161290Y44958
X54610Y17780
X54610Y20320
X59690Y1270
X62230Y1270
X64770Y1270
X67310Y1270
X80010Y41910
X77470Y41910
X74930Y41910
X72390Y41910
X69850Y41910
X67310Y41910
X64770Y41910
X59690Y41910
X82550Y1270
X80010Y1270
X77470Y1270
X74930Y1270
X72390Y1270
X69850Y1270
X46990Y35560
X46990Y33020
X46990Y30480
X46990Y27940
X46990Y25400
X46990Y22860
X82550Y41910
X82550Y39370
X138430Y79248
X138430Y76708
X156210Y1270
X138430Y74168
X100330Y17780
X100330Y20320
X105410Y1270
X107950Y1270
X110490Y1270
X113030Y1270
X125730Y41910
X123190Y41910
X120650Y41910
X118110Y41910
X115570Y41910
X113030Y41910
X110490Y41910
X107950Y41910
X105410Y41910
X128270Y1270
X125730Y1270
X123190Y1270
X120650Y1270
X118110Y1270
X115570Y1270
X92710Y35560
X92710Y33020
X92710Y30480
X92710Y27940
X92710Y25400
X92710Y22860
X128270Y41910
X128270Y39370
X138430Y71628
X138430Y69088
X138430Y66548
X173990Y85598
X146050Y17780
X146050Y20320
X151130Y1270
X153670Y1270
X24130Y85598
X158750Y1270
X171450Y41910
X168910Y41910
X166370Y41910
X163830Y41910
X161290Y41910
X158750Y41910
X156210Y41910
X153670Y41910
X151130Y41910
X173990Y1270
X171450Y1270
X168910Y1270
X166370Y1270
X163830Y1270
X161290Y1270
X138430Y35560
X138430Y33020
X138430Y30480
X138430Y27940
X138430Y25400
X138430Y22860
X173990Y41910
X173990Y39370
X8890Y61468
X8890Y64008
X13970Y44958
X16510Y44958
X19050Y44958
X21590Y44958
X34290Y85598
X31750Y85598
X29210Y85598
X26670Y85598
X21590Y85598
X19050Y85598
X16510Y85598
X13970Y85598
X36830Y44958
X34290Y44958
X31750Y44958
X29210Y44958
X26670Y44958
X24130Y44958
X1270Y79248
X1270Y76708
X1270Y74168
X1270Y71628
X1270Y69088
X1270Y66548
X36830Y85598
X36830Y83058
X54610Y61468
X54610Y64008
X59690Y44958
X62230Y44958
X64770Y44958
X67310Y44958
X80010Y85598
X77470Y85598
X74930Y85598
X72390Y85598
X69850Y85598
X67310Y85598
X64770Y85598
X62230Y85598
X59690Y85598
X82550Y44958
X80010Y44958
X77470Y44958
X74930Y44958
X72390Y44958
X69850Y44958
X46990Y79248
X46990Y76708
X46990Y74168
X46990Y71628
X46990Y69088
X46990Y66548
X82550Y85598
X82550Y83058
X100330Y61468
X100330Y64008
X105410Y44958
X107950Y44958
X110490Y44958
X113030Y44958
X125730Y85598
X123190Y85598
X120650Y85598
X118110Y85598
X115570Y85598
X113030Y85598
X110490Y85598
X107950Y85598
X105410Y85598
X128270Y44958
X125730Y44958
X123190Y44958
X120650Y44958
X118110Y44958
X115570Y44958
X92710Y79248
X92710Y76708
X92710Y74168
X92710Y71628
X92710Y69088
T3
X4905Y15590
X4905Y9810
X50625Y15590
X50625Y9810
X96345Y15590
X96345Y9810
X142065Y15590
X142065Y9810
X4905Y59278
X4905Y53498
X50625Y59278
X50625Y53498
X96345Y59278
X142065Y59278
X142065Y53498
X96345Y53498
T4
X1255Y17018
X1255Y8382
X5435Y8382
X5435Y17018
X46975Y17018
X46975Y8382
X51155Y8382
X51155Y17018
X92695Y17018
X92695Y8382
X96875Y17018
X138415Y17018
X138415Y8382
X142595Y8382
X142595Y17018
X5435Y60706
X1255Y60706
X138415Y60706
X138415Y52070
X142595Y52070
X142595Y60706
X46975Y60706
X46975Y52070
X51155Y52070
X51155Y60706
X1255Y52070
X96875Y8382
X92695Y60706
X92695Y52070
X96875Y52070
X96875Y60706
X5435Y52070
T5
X64008Y33528
X69901Y5969
X75819Y36703
X52959Y10287
X52959Y15150
X70739Y5969
X73279Y33401
X73511Y9547
X53086Y36576
X53213Y40005
X56110Y6604
X72390Y36830
X54102Y36576
X54165Y10922
X77216Y21590
X65659Y5969
X64770Y5969
X73660Y39243
X58420Y26289
X55880Y12700
X80391Y36195
X77089Y30099
X81661Y8255
X84222Y16997
X77470Y10033
X78613Y7620
X56007Y16383
X62230Y19939
X56007Y21082
X55118Y25781
X81407Y31750
X76175Y13025
X75565Y10033
X77298Y17729
X79248Y11430
X76581Y10033
X105410Y27940
X105410Y35560
X108712Y35560
X99822Y6350
X105918Y14859
X102870Y10160
X105910Y18796
X98933Y12700
X107569Y9779
X109220Y11430
X109220Y12700
X112649Y13081
X112649Y15240
X112649Y17399
X112649Y19558
X112649Y21590
X112649Y23749
X112649Y25781
X112649Y27813
X112649Y29972
X114808Y13081
X114808Y15240
X114808Y17399
X114808Y19558
X114808Y21590
X114808Y23749
X114808Y25781
X114808Y27813
X114808Y29972
X116840Y13081
X116840Y15240
X116840Y17399
X116840Y19558
X116840Y21590
X116840Y23749
X116840Y25781
X116840Y27813
X116840Y29972
X118999Y13081
X118999Y15240
X118999Y17399
X118999Y19558
X118999Y21590
X118999Y23749
X118999Y25781
X118999Y27813
X118999Y29972
X121031Y13081
X121031Y15240
X121031Y17399
X121031Y21590
X121031Y23749
X121031Y25781
X121031Y27813
X121031Y29972
X109220Y30480
X109220Y31750
X124460Y30480
X103886Y17780
X103886Y15875
X104140Y20320
X99949Y24130
X101727Y24130
X107061Y25527
X107950Y24384
X107061Y29464
X102870Y29210
X122936Y27813
X122936Y25781
X110744Y23749
X110744Y25781
X110744Y19558
X110744Y17399
X110744Y13335
X110744Y15240
X125730Y17780
X122936Y15240
X92710Y6985
X92710Y18415
X98679Y9398
X98679Y16002
X97790Y21590
X101854Y39370
X98806Y3683
X127127Y14605
X128778Y17653
X126111Y14605
X130810Y17780
X132080Y17780
X129540Y17780
X129540Y20320
X130810Y20320
X132080Y20320
X132080Y22860
X130810Y22860
X129540Y22860
X129540Y25400
X130810Y25400
X132080Y25400
X132080Y27940
X130810Y27940
X129540Y27940
X129540Y30480
X130810Y30480
X132080Y30480
X132080Y33020
X130810Y33020
X129540Y33020
X133350Y36957
X127181Y19050
X127181Y20320
X127254Y21590
X128270Y22733
X125730Y20320
X126492Y29337
X107950Y18796
X107950Y14478
X109220Y9779
X107569Y11430
X107061Y31750
X132080Y7620
X130810Y7620
X130810Y10160
X132080Y10160
X129540Y10160
X129540Y12700
X130810Y12700
X132080Y12700
X126111Y13589
X124841Y13335
X125730Y19050
X128016Y34925
X128016Y28575
X127181Y17780
X116840Y10160
X128778Y16764
X129540Y7620
X109474Y36233
X109728Y33528
X115621Y5969
X121539Y36703
X98679Y10287
X98679Y15150
X116459Y5969
X118999Y33401
X119231Y9547
X98806Y36576
X98933Y40005
X101830Y6604
X118110Y36830
X99822Y36576
X99885Y10922
X122936Y21590
X111379Y5969
X110490Y5969
X119380Y39243
X104140Y26289
X101600Y12700
X126111Y36195
X122809Y30099
X127381Y8255
X129942Y16997
X123190Y10033
X124333Y7620
X101727Y16383
X107950Y19939
X101727Y21082
X100838Y25781
X127127Y31750
X121895Y13025
X121285Y10033
X123018Y17729
X124968Y11430
X122301Y10033
X151130Y27940
X151130Y35560
X154432Y35560
X145542Y6350
X151638Y14859
X148590Y10160
X151630Y18796
X144653Y12700
X153289Y9779
X154940Y11430
X154940Y12700
X158369Y13081
X158369Y15240
X158369Y17399
X158369Y19558
X158369Y21590
X158369Y23749
X158369Y25781
X158369Y27813
X158369Y29972
X160528Y13081
X160528Y15240
X160528Y17399
X160528Y19558
X160528Y21590
X160528Y23749
X160528Y25781
X160528Y27813
X160528Y29972
X162560Y13081
X162560Y15240
X162560Y17399
X162560Y19558
X162560Y21590
X162560Y23749
X162560Y25781
X162560Y27813
X162560Y29972
X164719Y13081
X164719Y15240
X164719Y17399
X164719Y19558
X164719Y21590
X164719Y23749
X164719Y25781
X164719Y27813
X164719Y29972
X166751Y13081
X166751Y15240
X166751Y17399
X166751Y21590
X166751Y23749
X166751Y25781
X166751Y27813
X166751Y29972
X154940Y30480
X154940Y31750
X170180Y30480
X149606Y17780
X149606Y15875
X149860Y20320
X145669Y24130
X147447Y24130
X152781Y25527
X153670Y24384
X152781Y29464
X148590Y29210
X168656Y27813
X168656Y25781
X156464Y23749
X156464Y25781
X156464Y19558
X156464Y17399
X156464Y13335
X156464Y15240
X171450Y17780
X168656Y15240
X138430Y6985
X138430Y18415
X144399Y9398
X144399Y16002
X143510Y21590
X147574Y39370
X144526Y3683
X172847Y14605
X174498Y17653
X171831Y14605
X176530Y17780
X177800Y17780
X175260Y17780
X175260Y20320
X176530Y20320
X177800Y20320
X177800Y22860
X176530Y22860
X175260Y22860
X175260Y25400
X176530Y25400
X177800Y25400
X177800Y27940
X176530Y27940
X175260Y27940
X175260Y30480
X176530Y30480
X177800Y30480
X177800Y33020
X176530Y33020
X175260Y33020
X179070Y36957
X172901Y19050
X172901Y20320
X172974Y21590
X173990Y22733
X171450Y20320
X172212Y29337
X153670Y18796
X153670Y14478
X154940Y9779
X153289Y11430
X152781Y31750
X177800Y7620
X176530Y7620
X176530Y10160
X177800Y10160
X175260Y10160
X175260Y12700
X176530Y12700
X177800Y12700
X171831Y13589
X170561Y13335
X171450Y19050
X173736Y34925
X173736Y28575
X172901Y17780
X162560Y10160
X174498Y16764
X175260Y7620
X155194Y36233
X155448Y33528
X161341Y5969
X167259Y36703
X144399Y10287
X144399Y15150
X162179Y5969
X164719Y33401
X164951Y9547
X144526Y36576
X144653Y40005
X147550Y6604
X163830Y36830
X145542Y36576
X145606Y10922
X168656Y21590
X157099Y5969
X156210Y5969
X165100Y39243
X149860Y26289
X147320Y12700
X171831Y36195
X168529Y30099
X173101Y8255
X175662Y16997
X168910Y10033
X170053Y7620
X147447Y16383
X153670Y19939
X147447Y21082
X146558Y25781
X172847Y31750
X167615Y13025
X167005Y10033
X168738Y17729
X170688Y11430
X168021Y10033
X13970Y71628
X13970Y79248
X17272Y79248
X8382Y50038
X14478Y58547
X11430Y53848
X14470Y62484
X7493Y56388
X16129Y53467
X17780Y55118
X17780Y56388
X21209Y56769
X21209Y58928
X21209Y61087
X21209Y63246
X21209Y65278
X21209Y67437
X21209Y69469
X21209Y71501
X21209Y73660
X23368Y56769
X23368Y58928
X23368Y61087
X23368Y63246
X23368Y65278
X23368Y67437
X23368Y69469
X23368Y71501
X23368Y73660
X25400Y56769
X25400Y58928
X25400Y61087
X25400Y63246
X25400Y65278
X25400Y67437
X25400Y69469
X25400Y71501
X25400Y73660
X27559Y56769
X27559Y58928
X27559Y61087
X27559Y63246
X27559Y65278
X27559Y67437
X27559Y69469
X27559Y71501
X27559Y73660
X29591Y56769
X29591Y58928
X29591Y61087
X29591Y65278
X29591Y67437
X29591Y69469
X29591Y71501
X29591Y73660
X17780Y74168
X17780Y75438
X33020Y74168
X12446Y61468
X12446Y59563
X12700Y64008
X8509Y67818
X10287Y67818
X15621Y69215
X16510Y68072
X15621Y73152
X11430Y72898
X31496Y71501
X31496Y69469
X19304Y67437
X19304Y69469
X19304Y63246
X19304Y61087
X19304Y57023
X19304Y58928
X34290Y61468
X31496Y58928
X1270Y50673
X1270Y62103
X7239Y53086
X7239Y59690
X6350Y65278
X10414Y83058
X7366Y47371
X35687Y58293
X37338Y61341
X34671Y58293
X39370Y61468
X40640Y61468
X38100Y61468
X38100Y64008
X39370Y64008
X40640Y64008
X40640Y66548
X39370Y66548
X38100Y66548
X38100Y69088
X39370Y69088
X40640Y69088
X40640Y71628
X39370Y71628
X38100Y71628
X38100Y74168
X39370Y74168
X40640Y74168
X40640Y76708
X39370Y76708
X38100Y76708
X41910Y80645
X35741Y62738
X35741Y64008
X35814Y65278
X36830Y66421
X34290Y64008
X35052Y73025
X16510Y62484
X16510Y58166
X17780Y53467
X16129Y55118
X15621Y75438
X40640Y51308
X39370Y51308
X39370Y53848
X40640Y53848
X38100Y53848
X38100Y56388
X39370Y56388
X40640Y56388
X34671Y57277
X33401Y57023
X34290Y62738
X36576Y78613
X36576Y72263
X35741Y61468
X25400Y53848
X37338Y60452
X38100Y51308
X18034Y79921
X18288Y77216
X24181Y49657
X30099Y80391
X7239Y53975
X7239Y58838
X25019Y49657
X27559Y77089
X27791Y53235
X7366Y80264
X7493Y83693
X10390Y50292
X26670Y80518
X8382Y80264
X8446Y54610
X31496Y65278
X19939Y49657
X19050Y49657
X27940Y82931
X73279Y15240
X10160Y56388
X34671Y79883
X31369Y73787
X35941Y51943
X38502Y60685
X31750Y53721
X32893Y51308
X10287Y60071
X16510Y63627
X10287Y64770
X9398Y69469
X35687Y75438
X30455Y56713
X29845Y53721
X31578Y61417
X33528Y55118
X30861Y53721
X59690Y71628
X59690Y79248
X62992Y79248
X54102Y50038
X60198Y58547
X57150Y53848
X60190Y62484
X53213Y56388
X61849Y53467
X63500Y55118
X63500Y56388
X66929Y56769
X66929Y58928
X66929Y61087
X66929Y63246
X66929Y65278
X66929Y67437
X66929Y69469
X66929Y71501
X66929Y73660
X69088Y56769
X69088Y58928
X69088Y61087
X69088Y63246
X69088Y65278
X69088Y67437
X69088Y69469
X69088Y71501
X69088Y73660
X71120Y56769
X71120Y58928
X71120Y61087
X71120Y63246
X71120Y65278
X71120Y67437
X71120Y69469
X71120Y71501
X71120Y73660
X73279Y56769
X73279Y58928
X73279Y61087
X73279Y63246
X73279Y65278
X73279Y67437
X73279Y69469
X73279Y71501
X73279Y73660
X75311Y56769
X75311Y58928
X75311Y61087
X75311Y65278
X75311Y67437
X75311Y69469
X75311Y71501
X75311Y73660
X63500Y74168
X63500Y75438
X78740Y74168
X58166Y61468
X58166Y59563
X58420Y64008
X54229Y67818
X56007Y67818
X61341Y69215
X62230Y68072
X61341Y73152
X57150Y72898
X77216Y71501
X77216Y69469
X65024Y67437
X65024Y69469
X65024Y63246
X65024Y61087
X65024Y57023
X65024Y58928
X80010Y61468
X77216Y58928
X46990Y50673
X46990Y62103
X52959Y53086
X52959Y59690
X52070Y65278
X56134Y83058
X53086Y47371
X81407Y58293
X83058Y61341
X80391Y58293
X85090Y61468
X86360Y61468
X83820Y61468
X83820Y64008
X85090Y64008
X86360Y64008
X86360Y66548
X85090Y66548
X83820Y66548
X83820Y69088
X85090Y69088
X86360Y69088
X86360Y71628
X85090Y71628
X83820Y71628
X83820Y74168
X85090Y74168
X86360Y74168
X86360Y76708
X85090Y76708
X83820Y76708
X87630Y80645
X81461Y62738
X81461Y64008
X81534Y65278
X82550Y66421
X80010Y64008
X80772Y73025
X62230Y62484
X62230Y58166
X63500Y53467
X61849Y55118
X61341Y75438
X86360Y51308
X85090Y51308
X85090Y53848
X86360Y53848
X83820Y53848
X83820Y56388
X85090Y56388
X86360Y56388
X80391Y57277
X79121Y57023
X80010Y62738
X82296Y78613
X82296Y72263
X81461Y61468
X71120Y53848
X83058Y60452
X83820Y51308
X63754Y79921
X64008Y77216
X69901Y49657
X75819Y80391
X52959Y53975
X52959Y58838
X70739Y49657
X73279Y77089
X73511Y53235
X53086Y80264
X53213Y83693
X56110Y50292
X72390Y80518
X54102Y80264
X54165Y54610
X77216Y65278
X65659Y49657
X64770Y49657
X73660Y82931
X58420Y69977
X55880Y56388
X80391Y79883
X77089Y73787
X81661Y51943
X84222Y60685
X77470Y53721
X78613Y51308
X56007Y60071
X62230Y63627
X56007Y64770
X55118Y69469
X81407Y75438
X76175Y56713
X75565Y53721
X77298Y61417
X79248Y55118
X76581Y53721
X105410Y71628
X105410Y79248
X108712Y79248
X99822Y50038
X105918Y58547
X102870Y53848
X105910Y62484
X98933Y56388
X107569Y53467
X109220Y55118
X109220Y56388
X112649Y56769
X112649Y58928
X112649Y61087
X112649Y63246
X112649Y65278
X112649Y67437
X112649Y69469
X112649Y71501
X112649Y73660
X114808Y56769
X114808Y58928
X114808Y61087
X114808Y63246
X114808Y65278
X114808Y67437
X114808Y69469
X114808Y71501
X114808Y73660
X116840Y56769
X116840Y58928
X116840Y61087
X116840Y63246
X116840Y65278
X116840Y67437
X116840Y69469
X116840Y71501
X116840Y73660
X118999Y56769
X118999Y58928
X118999Y61087
X118999Y63246
X118999Y65278
X118999Y67437
X118999Y69469
X118999Y71501
X118999Y73660
X121031Y56769
X121031Y58928
X121031Y61087
X121031Y65278
X121031Y67437
X121031Y69469
X121031Y71501
X121031Y73660
X109220Y74168
X109220Y75438
X124460Y74168
X103886Y61468
X103886Y59563
X104140Y64008
X99949Y67818
X101727Y67818
X107061Y69215
X107950Y68072
X107061Y73152
X102870Y72898
X122936Y71501
X122936Y69469
X110744Y67437
X110744Y69469
X110744Y63246
X110744Y61087
X110744Y57023
X110744Y58928
X125730Y61468
X122936Y58928
X92710Y50673
X92710Y62103
X98679Y53086
X98679Y59690
X97790Y65278
X101854Y83058
X98806Y47371
X127127Y58293
X128778Y61341
X126111Y58293
X130810Y61468
X132080Y61468
X129540Y61468
X129540Y64008
X130810Y64008
X132080Y64008
X132080Y66548
X130810Y66548
X129540Y66548
X129540Y69088
X130810Y69088
X132080Y69088
X132080Y71628
X130810Y71628
X129540Y71628
X129540Y74168
X130810Y74168
X132080Y74168
X132080Y76708
X130810Y76708
X129540Y76708
X133350Y80645
X127181Y62738
X127181Y64008
X127254Y65278
X128270Y66421
X125730Y64008
X126492Y73025
X107950Y62484
X107950Y58166
X109220Y53467
X107569Y55118
X107061Y75438
X132080Y51308
X130810Y51308
X130810Y53848
X132080Y53848
X129540Y53848
X129540Y56388
X130810Y56388
X132080Y56388
X126111Y57277
X124841Y57023
X125730Y62738
X128016Y78613
X128016Y72263
X127181Y61468
X116840Y53848
X128778Y60452
X129540Y51308
X109474Y79921
X109728Y77216
X115621Y49657
X121539Y80391
X98679Y53975
X98679Y58838
X116459Y49657
X118999Y77089
X119231Y53235
X98806Y80264
X98933Y83693
X101830Y50292
X118110Y80518
X99822Y80264
X99885Y54610
X122936Y65278
X111379Y49657
X110490Y49657
X119380Y82931
X104140Y69977
X101600Y56388
X126111Y79883
X122809Y73787
X127381Y51943
X129942Y60685
X123190Y53721
X124333Y51308
X101727Y60071
X107950Y63627
X101727Y64770
X100838Y69469
X127127Y75438
X121895Y56713
X121285Y53721
X123018Y61417
X124968Y55118
X122301Y53721
X151130Y71628
X151130Y79248
X154432Y79248
X145542Y50038
X151638Y58547
X148590Y53848
X151630Y62484
X144653Y56388
X153289Y53467
X154940Y55118
X154940Y56388
X158369Y56769
X158369Y58928
X158369Y61087
X158369Y63246
X158369Y65278
X158369Y67437
X158369Y69469
X158369Y71501
X158369Y73660
X160528Y56769
X160528Y58928
X160528Y61087
X160528Y63246
X160528Y65278
X160528Y67437
X160528Y69469
X160528Y71501
X160528Y73660
X162560Y56769
X162560Y58928
X162560Y61087
X162560Y63246
X162560Y65278
X162560Y67437
X162560Y69469
X162560Y71501
X162560Y73660
X164719Y56769
X164719Y58928
X164719Y61087
X164719Y63246
X164719Y65278
X164719Y67437
X164719Y69469
X164719Y71501
X164719Y73660
X166751Y56769
X166751Y58928
X166751Y61087
X166751Y65278
X166751Y67437
X166751Y69469
X166751Y71501
X166751Y73660
X154940Y74168
X154940Y75438
X170180Y74168
X149606Y61468
X13970Y27940
X149860Y64008
X145669Y67818
X147447Y67818
X152781Y69215
X153670Y68072
X152781Y73152
X148590Y72898
X168656Y71501
X168656Y69469
X156464Y67437
X156464Y69469
X156464Y63246
X156464Y61087
X156464Y57023
X156464Y58928
X171450Y61468
X168656Y58928
X138430Y50673
X138430Y62103
X144399Y53086
X144399Y59690
X143510Y65278
X147574Y83058
X144526Y47371
X172847Y58293
X174498Y61341
X171831Y58293
X176530Y61468
X177800Y61468
X175260Y61468
X175260Y64008
X176530Y64008
X177800Y64008
X177800Y66548
X176530Y66548
X175260Y66548
X175260Y69088
X176530Y69088
X177800Y69088
X177800Y71628
X176530Y71628
X175260Y71628
X175260Y74168
X176530Y74168
X177800Y74168
X177800Y76708
X176530Y76708
X175260Y76708
X179070Y80645
X172901Y62738
X172901Y64008
X172974Y65278
X173990Y66421
X171450Y64008
X172212Y73025
X153670Y62484
X153670Y58166
X154940Y53467
X153289Y55118
X152781Y75438
X177800Y51308
X176530Y51308
X176530Y53848
X177800Y53848
X175260Y53848
X175260Y56388
X176530Y56388
X177800Y56388
X171831Y57277
X170561Y57023
X171450Y62738
X173736Y78613
X173736Y72263
X172901Y61468
X162560Y53848
X174498Y60452
X175260Y51308
X155194Y79921
X155448Y77216
X161341Y49657
X167259Y80391
X144399Y53975
X144399Y58838
X162179Y49657
X164719Y77089
X164951Y53235
X144526Y80264
X144653Y83693
X147550Y50292
X163830Y80518
X145542Y80264
X145606Y54610
X168656Y65278
X157099Y49657
X156210Y49657
X165100Y82931
X149860Y69977
X147320Y56388
X171831Y79883
X168529Y73787
X173101Y51943
X175662Y60685
X168910Y53721
X170053Y51308
X147447Y60071
X153670Y63627
X147447Y64770
X146558Y69469
X172847Y75438
X167615Y56713
X167005Y53721
X168738Y61417
X170688Y55118
X168021Y53721
X13970Y35560
X17272Y35560
X8382Y6350
X14478Y14859
X11430Y10160
X14470Y18796
X7493Y12700
X16129Y9779
X17780Y11430
X17780Y12700
X21209Y13081
X21209Y15240
X21209Y17399
X21209Y19558
X21209Y21590
X21209Y23749
X21209Y25781
X21209Y27813
X21209Y29972
X23368Y13081
X23368Y15240
X23368Y17399
X23368Y19558
X23368Y21590
X23368Y23749
X23368Y25781
X23368Y27813
X23368Y29972
X25400Y13081
X25400Y15240
X25400Y17399
X25400Y19558
X25400Y21590
X25400Y23749
X25400Y25781
X25400Y27813
X25400Y29972
X27559Y13081
X27559Y15240
X27559Y17399
X27559Y19558
X27559Y21590
X27559Y23749
X27559Y25781
X27559Y27813
X27559Y29972
X29591Y13081
X29591Y15240
X29591Y17399
X29591Y21590
X29591Y23749
X29591Y25781
X29591Y27813
X29591Y29972
X17780Y30480
X17780Y31750
X33020Y30480
X12446Y17780
X12446Y15875
X12700Y20320
X8509Y24130
X10287Y24130
X15621Y25527
X16510Y24384
X15621Y29464
X11430Y29210
X31496Y27813
X31496Y25781
X19304Y23749
X19304Y25781
X19304Y19558
X19304Y17399
X19304Y13335
X19304Y15240
X34290Y17780
X31496Y15240
X1270Y6985
X1270Y18415
X7239Y9398
X7239Y16002
X6350Y21590
X10414Y39370
X7366Y3683
X35687Y14605
X37338Y17653
X34671Y14605
X39370Y17780
X40640Y17780
X38100Y17780
X38100Y20320
X39370Y20320
X40640Y20320
X40640Y22860
X39370Y22860
X38100Y22860
X38100Y25400
X39370Y25400
X40640Y25400
X12700Y69977
X40640Y27940
X39370Y27940
X38100Y27940
X38100Y30480
X39370Y30480
X40640Y30480
X40640Y33020
X39370Y33020
X38100Y33020
X41910Y36957
X35741Y19050
X35741Y20320
X35814Y21590
X36830Y22733
X34290Y20320
X35052Y29337
X16510Y18796
X16510Y14478
X17780Y9779
X16129Y11430
X15621Y31750
X40640Y7620
X39370Y7620
X39370Y10160
X40640Y10160
X38100Y10160
X38100Y12700
X39370Y12700
X40640Y12700
X34671Y13589
X33401Y13335
X34290Y19050
X36576Y34925
X36576Y28575
X35741Y17780
X25400Y10160
X37338Y16764
X38100Y7620
X18034Y36233
X18288Y33528
X24181Y5969
X30099Y36703
X7239Y10287
X7239Y15150
X25019Y5969
X27559Y33401
X27791Y9547
X7366Y36576
X7493Y40005
X10390Y6604
X26670Y36830
X8382Y36576
X8446Y10922
X31496Y21590
X19939Y5969
X19050Y5969
X27940Y39243
X12700Y26289
X10160Y12700
X34671Y36195
X31369Y30099
X35941Y8255
X38502Y16997
X31750Y10033
X32893Y7620
X10287Y16383
X16510Y19939
X10287Y21082
X9398Y25781
X35687Y31750
X30455Y13025
X29845Y10033
X31578Y17729
X33528Y11430
X30861Y10033
X59690Y27940
X59690Y35560
X62992Y35560
X54102Y6350
X60198Y14859
X57150Y10160
X60190Y18796
X53213Y12700
X61849Y9779
X63500Y11430
X63500Y12700
X66929Y13081
X66929Y15240
X66929Y17399
X66929Y19558
X66929Y21590
X66929Y23749
X66929Y25781
X66929Y27813
X66929Y29972
X69088Y13081
X69088Y15240
X69088Y17399
X69088Y19558
X69088Y21590
X69088Y23749
X69088Y25781
X69088Y27813
X69088Y29972
X71120Y13081
X71120Y15240
X71120Y17399
X71120Y19558
X71120Y21590
X71120Y23749
X71120Y25781
X71120Y27813
X71120Y29972
X73279Y13081
X73279Y17399
X73279Y19558
X73279Y21590
X73279Y23749
X73279Y25781
X73279Y27813
X73279Y29972
X75311Y13081
X75311Y15240
X75311Y17399
X75311Y21590
X75311Y23749
X75311Y25781
X75311Y27813
X75311Y29972
X63500Y30480
X63500Y31750
X78740Y30480
X58166Y17780
X58166Y15875
X58420Y20320
X54229Y24130
X56007Y24130
X61341Y25527
X62230Y24384
X61341Y29464
X57150Y29210
X77216Y27813
X77216Y25781
X65024Y23749
X65024Y25781
X65024Y19558
X65024Y17399
X65024Y13335
X65024Y15240
X80010Y17780
X77216Y15240
X46990Y6985
X46990Y18415
X52959Y9398
X52959Y16002
X52070Y21590
X56134Y39370
X53086Y3683
X81407Y14605
X83058Y17653
X80391Y14605
X85090Y17780
X86360Y17780
X83820Y17780
X83820Y20320
X85090Y20320
X86360Y20320
X86360Y22860
X85090Y22860
X83820Y22860
X83820Y25400
X85090Y25400
X86360Y25400
X86360Y27940
X85090Y27940
X83820Y27940
X83820Y30480
X85090Y30480
X86360Y30480
X86360Y33020
X85090Y33020
X83820Y33020
X87630Y36957
X81461Y19050
X81461Y20320
X81534Y21590
X82550Y22733
X80010Y20320
X80772Y29337
X62230Y18796
X62230Y14478
X63500Y9779
X61849Y11430
X61341Y31750
X86360Y7620
X85090Y7620
X85090Y10160
X86360Y10160
X83820Y10160
X83820Y12700
X85090Y12700
X86360Y12700
X80391Y13589
X79121Y13335
X80010Y19050
X82296Y34925
X82296Y28575
X81461Y17780
X71120Y10160
X83058Y16764
X83820Y7620
X63754Y36233
X149606Y59563
M30